<svg version="1.1" id="prefix__Layer_1" xmlns="http://www.w3.org/2000/svg" x="0" y="0" viewBox="0 0 100 92" xml:space="preserve"><style>.prefix__st1{fill:#fc6d26}</style><path d="M95.9 36.5l-.1-.3-13-33.8c-.3-.7-.7-1.2-1.3-1.6-.6-.4-1.3-.6-2-.5-.7 0-1.4.3-2 .7-.6.4-1 1.1-1.1 1.7l-8.7 26.7H32.3L23.6 2.7c-.2-.6-.6-1.3-1.1-1.7-.6-.4-1.2-.7-2-.7-.7 0-1.4.1-2 .5-.6.4-1.1.9-1.3 1.6l-13 33.7-.1.3c-3.8 10-.6 21.3 8 27.7l.1.1 19.7 14.7 9.7 7.4 5.9 4.5c1.4 1.1 3.4 1.1 4.8 0l5.9-4.5 9.7-7.4 19.8-14.8h.1c8.7-6.3 11.9-17.6 8.1-27.6z" fill="#e24329"/><path class="prefix__st1" d="M95.9 36.5l-.1-.3c-6.4 1.3-12.3 4-17.4 7.8C78.3 44 63 55.6 50 65.4c9.7 7.3 18.1 13.7 18.1 13.7l19.8-14.8h.1c8.5-6.5 11.7-17.8 7.9-27.8z"/><path d="M31.9 79.1l9.7 7.4 5.9 4.5c1.4 1.1 3.4 1.1 4.8 0l5.9-4.5 9.7-7.4s-8.4-6.4-18.1-13.7c-9.5 7.3-17.9 13.7-17.9 13.7z" fill="#fca326"/><path class="prefix__st1" d="M21.6 43.9c-5.1-3.8-11-6.5-17.4-7.8l-.1.3c-3.8 10-.6 21.3 8 27.7l.1.1 19.7 14.7s8.4-6.4 18.1-13.7C37 55.6 21.7 44 21.6 43.9z"/></svg>