<svg xmlns="http://www.w3.org/2000/svg" width="101.27" height="88.06"><g shape-rendering="crispEdges" fill="none" fill-rule="evenodd"><path fill="#b55608" d="M96.87 22.48h4.4v4.4h-4.4zm0-4.4h4.4v4.4h-4.4z"/><path fill="#c36f09" d="M96.87 13.68h4.4v4.4h-4.4zm0-4.4h4.4v4.4h-4.4zm0-4.41h4.4v4.4h-4.4z"/><path fill="#b55608" d="M92.46 26.89h4.4v4.4h-4.4z"/><path fill="#ffecad" d="M92.46 22.48h4.4v4.4h-4.4zm0-4.4h4.4v4.4h-4.4zm0-4.4h4.4v4.4h-4.4zm0-4.4h4.4v4.4h-4.4zm0-4.41h4.4v4.4h-4.4z"/><path fill="#c36f09" d="M92.46.47h4.4v4.4h-4.4zm-4.4 30.82h4.4v4.4h-4.4z"/><path fill="#ffd95c" d="M88.06 26.89h4.4v4.4h-4.4z"/><path fill="#ffc60a" d="M88.06 22.48h4.4v4.4h-4.4zm0-13.2h4.4v4.4h-4.4z"/><path fill="#ffecad" d="M88.06 4.87h4.4v4.4h-4.4z"/><path fill="#c36f09" d="M88.06.47h4.4v4.4h-4.4zm-4.4 35.22h4.4v4.4h-4.4z"/><path fill="#ffd95c" d="M83.66 31.29h4.4v4.4h-4.4z"/><path fill="#ffc60a" d="M83.66 26.89h4.4v4.4h-4.4z"/><path fill="#ffd95c" d="M83.66 9.28h4.4v4.4h-4.4z"/><path fill="#ffecad" d="M83.66 4.87h4.4v4.4h-4.4z"/><path fill="#b55608" d="M83.66.47h4.4v4.4h-4.4zm-4.4 35.22h4.4v4.4h-4.4z"/><path fill="#ffd95c" d="M79.26 31.29h4.4v4.4h-4.4zm0-17.61h4.4v4.4h-4.4zm0-4.4h4.4v4.4h-4.4z"/><path fill="#b55608" d="M79.26 4.87h4.4v4.4h-4.4z"/><path fill="#c36f09" d="M74.85 40.1h4.4v4.4h-4.4zm0-4.41h4.4v4.4h-4.4zm0-4.4h4.4v4.4h-4.4zm0-4.4h4.4v4.4h-4.4zm0-4.41h4.4v4.4h-4.4zm0-4.4h4.4v4.4h-4.4zm0-4.4h4.4v4.4h-4.4zm0-4.4h4.4v4.4h-4.4zm0-4.41h4.4v4.4h-4.4z"/><path fill="#710000" d="M70.45 84.13h4.4v4.4h-4.4zm0-4.41h4.4v4.4h-4.4z"/><path fill="#c36f09" d="M70.45 44.5h4.4v4.4h-4.4z"/><path fill="#ffe285" d="M70.45 40.1h4.4v4.4h-4.4zm0-4.41h4.4v4.4h-4.4zm0-4.4h4.4v4.4h-4.4z"/><path fill="#ffecad" d="M70.45 26.89h4.4v4.4h-4.4zm0-4.41h4.4v4.4h-4.4zm0-4.4h4.4v4.4h-4.4zm0-4.4h4.4v4.4h-4.4zm0-4.4h4.4v4.4h-4.4zm0-4.41h4.4v4.4h-4.4z"/><path fill="#c36f09" d="M70.45.47h4.4v4.4h-4.4z"/><path fill="#710000" d="M66.05 84.13h4.4v4.4h-4.4z"/><path fill="#a63c06" d="M66.05 79.72h4.4v4.4h-4.4z"/><path fill="#710000" d="M66.05 75.32h4.4v4.4h-4.4z"/><path fill="#b55608" d="M66.05 48.9h4.4v4.4h-4.4z"/><path fill="#ffe285" d="M66.05 44.5h4.4v4.4h-4.4zm0-4.4h4.4v4.4h-4.4zm0-4.41h4.4v4.4h-4.4zm0-4.4h4.4v4.4h-4.4zm0-4.4h4.4v4.4h-4.4zm0-4.41h4.4v4.4h-4.4zm0-4.4h4.4v4.4h-4.4zm0-4.4h4.4v4.4h-4.4zm0-4.4h4.4v4.4h-4.4z"/><path fill="#ffecad" d="M66.05 4.87h4.4v4.4h-4.4z"/><path fill="#c36f09" d="M66.05.47h4.4v4.4h-4.4z"/><path fill="#710000" d="M61.64 84.13h4.4v4.4h-4.4z"/><path fill="#a63c06" d="M61.64 79.72h4.4v4.4h-4.4z"/><path fill="#da914d" d="M61.64 75.32h4.4v4.4h-4.4z"/><path fill="#710000" d="M61.64 70.92h4.4v4.4h-4.4z"/><path fill="#b55608" d="M61.64 53.31h4.4v4.4h-4.4z"/><path fill="#ffe285" d="M61.64 48.9h4.4v4.4h-4.4zm0-4.4h4.4v4.4h-4.4zm0-4.4h4.4v4.4h-4.4zm0-4.41h4.4v4.4h-4.4zm0-4.4h4.4v4.4h-4.4zm0-4.4h4.4v4.4h-4.4zm0-4.41h4.4v4.4h-4.4zm0-4.4h4.4v4.4h-4.4zm0-4.4h4.4v4.4h-4.4zm0-4.4h4.4v4.4h-4.4zm0-4.41h4.4v4.4h-4.4z"/><path fill="#c36f09" d="M61.64.47h4.4v4.4h-4.4z"/><path fill="#710000" d="M57.24 84.13h4.4v4.4h-4.4z"/><path fill="#c36f09" d="M57.24 79.72h4.4v4.4h-4.4z"/><path fill="#da914d" d="M57.24 75.32h4.4v4.4h-4.4z"/><path fill="#710000" d="M57.24 70.92h4.4v4.4h-4.4z"/><path fill="#b55608" d="M57.24 66.52h4.4v4.4h-4.4zm0-4.41h4.4v4.4h-4.4zm0-4.4h4.4v4.4h-4.4zm0-4.4h4.4v4.4h-4.4z"/><path fill="#ffe285" d="M57.24 48.9h4.4v4.4h-4.4zm0-4.4h4.4v4.4h-4.4zm0-4.4h4.4v4.4h-4.4zm0-4.41h4.4v4.4h-4.4zm0-4.4h4.4v4.4h-4.4zm0-4.4h4.4v4.4h-4.4zm0-4.41h4.4v4.4h-4.4zm0-4.4h4.4v4.4h-4.4zm0-4.4h4.4v4.4h-4.4zm0-4.4h4.4v4.4h-4.4zm0-4.41h4.4v4.4h-4.4z"/><path fill="#c36f09" d="M57.24.47h4.4v4.4h-4.4z"/><path fill="#710000" d="M52.84 84.13h4.4v4.4h-4.4z"/><path fill="#da914d" d="M52.84 79.72h4.4v4.4h-4.4z"/><path fill="#c36f09" d="M52.84 75.32h4.4v4.4h-4.4z"/><path fill="#710000" d="M52.84 70.92h4.4v4.4h-4.4z"/><path fill="#ffe285" d="M52.84 66.52h4.4v4.4h-4.4zm0-4.41h4.4v4.4h-4.4zm0-4.4h4.4v4.4h-4.4z"/><path fill="#b55608" d="M52.84 53.31h4.4v4.4h-4.4z"/><path fill="#ffd95c" d="M52.84 48.9h4.4v4.4h-4.4zm0-4.4h4.4v4.4h-4.4zm0-4.4h4.4v4.4h-4.4zm0-4.41h4.4v4.4h-4.4zm0-4.4h4.4v4.4h-4.4zm0-4.4h4.4v4.4h-4.4zm0-4.41h4.4v4.4h-4.4zm0-4.4h4.4v4.4h-4.4zm0-4.4h4.4v4.4h-4.4zm0-4.4h4.4v4.4h-4.4zm0-4.41h4.4v4.4h-4.4z"/><path fill="#b55608" d="M52.84.47h4.4v4.4h-4.4z"/><path fill="#710000" d="M48.43 84.13h4.4v4.4h-4.4z"/><path fill="#da914d" d="M48.43 79.72h4.4v4.4h-4.4z"/><path fill="#c36f09" d="M48.43 75.32h4.4v4.4h-4.4z"/><path fill="#710000" d="M48.43 70.92h4.4v4.4h-4.4z"/><path fill="#ffd95c" d="M48.43 66.52h4.4v4.4h-4.4zm0-4.41h4.4v4.4h-4.4zm0-4.4h4.4v4.4h-4.4z"/><path fill="#b55608" d="M48.43 53.31h4.4v4.4h-4.4z"/><path fill="#ffd95c" d="M48.43 48.9h4.4v4.4h-4.4zm0-4.4h4.4v4.4h-4.4zm0-4.4h4.4v4.4h-4.4zm0-4.41h4.4v4.4h-4.4zm0-4.4h4.4v4.4h-4.4zm0-4.4h4.4v4.4h-4.4zm0-4.41h4.4v4.4h-4.4zm0-4.4h4.4v4.4h-4.4zm0-4.4h4.4v4.4h-4.4zm0-4.4h4.4v4.4h-4.4zm0-4.41h4.4v4.4h-4.4z"/><path fill="#b55608" d="M48.43.47h4.4v4.4h-4.4z"/><path fill="#710000" d="M44.03 84.13h4.4v4.4h-4.4z"/><path fill="#da914d" d="M44.03 79.72h4.4v4.4h-4.4z"/><path fill="#c36f09" d="M44.03 75.32h4.4v4.4h-4.4z"/><path fill="#710000" d="M44.03 70.92h4.4v4.4h-4.4z"/><path fill="#ffcf33" d="M44.03 66.52h4.4v4.4h-4.4zm0-4.41h4.4v4.4h-4.4zm0-4.4h4.4v4.4h-4.4z"/><path fill="#b55608" d="M44.03 53.31h4.4v4.4h-4.4z"/><path fill="#ffd95c" d="M44.03 48.9h4.4v4.4h-4.4zm0-4.4h4.4v4.4h-4.4zm0-4.4h4.4v4.4h-4.4zm0-4.41h4.4v4.4h-4.4zm0-4.4h4.4v4.4h-4.4zm0-4.4h4.4v4.4h-4.4zm0-4.41h4.4v4.4h-4.4zm0-4.4h4.4v4.4h-4.4zm0-4.4h4.4v4.4h-4.4zm0-4.4h4.4v4.4h-4.4zm0-4.41h4.4v4.4h-4.4z"/><path fill="#b55608" d="M44.03.47h4.4v4.4h-4.4z"/><path fill="#710000" d="M39.63 84.13h4.4v4.4h-4.4z"/><path fill="#c36f09" d="M39.63 79.72h4.4v4.4h-4.4z"/><path fill="#da914d" d="M39.63 75.32h4.4v4.4h-4.4z"/><path fill="#710000" d="M39.63 70.92h4.4v4.4h-4.4z"/><path fill="#b55608" d="M39.63 66.52h4.4v4.4h-4.4zm0-4.41h4.4v4.4h-4.4zm0-4.4h4.4v4.4h-4.4zm0-4.4h4.4v4.4h-4.4z"/><path fill="#ffcf33" d="M39.63 48.9h4.4v4.4h-4.4zm0-4.4h4.4v4.4h-4.4zm0-4.4h4.4v4.4h-4.4zm0-4.41h4.4v4.4h-4.4zm0-4.4h4.4v4.4h-4.4zm0-4.4h4.4v4.4h-4.4zm0-4.41h4.4v4.4h-4.4zm0-4.4h4.4v4.4h-4.4zm0-4.4h4.4v4.4h-4.4zm0-4.4h4.4v4.4h-4.4zm0-4.41h4.4v4.4h-4.4z"/><path fill="#b55608" d="M39.63.47h4.4v4.4h-4.4z"/><path fill="#710000" d="M35.22 84.13h4.4v4.4h-4.4z"/><path fill="#a63c06" d="M35.22 79.72h4.4v4.4h-4.4z"/><path fill="#da914d" d="M35.22 75.32h4.4v4.4h-4.4z"/><path fill="#710000" d="M35.22 70.92h4.4v4.4h-4.4z"/><path fill="#b55608" d="M35.22 53.31h4.4v4.4h-4.4z"/><path fill="#ffc60a" d="M35.22 48.9h4.4v4.4h-4.4zm0-4.4h4.4v4.4h-4.4z"/><path fill="#ffcf33" d="M35.22 40.1h4.4v4.4h-4.4zm0-4.41h4.4v4.4h-4.4zm0-4.4h4.4v4.4h-4.4zm0-4.4h4.4v4.4h-4.4zm0-4.41h4.4v4.4h-4.4zm0-4.4h4.4v4.4h-4.4zm0-4.4h4.4v4.4h-4.4zm0-4.4h4.4v4.4h-4.4zm0-4.41h4.4v4.4h-4.4z"/><path fill="#b55608" d="M35.22.47h4.4v4.4h-4.4z"/><path fill="#710000" d="M30.82 84.13h4.4v4.4h-4.4z"/><path fill="#a63c06" d="M30.82 79.72h4.4v4.4h-4.4z"/><path fill="#710000" d="M30.82 75.32h4.4v4.4h-4.4z"/><path fill="#b55608" d="M30.82 48.9h4.4v4.4h-4.4z"/><path fill="#ffc60a" d="M30.82 44.5h4.4v4.4h-4.4zm0-4.4h4.4v4.4h-4.4zm0-4.41h4.4v4.4h-4.4zm0-4.4h4.4v4.4h-4.4z"/><path fill="#ffcf33" d="M30.82 26.89h4.4v4.4h-4.4zm0-4.41h4.4v4.4h-4.4zm0-4.4h4.4v4.4h-4.4zm0-4.4h4.4v4.4h-4.4zm0-4.4h4.4v4.4h-4.4zm0-4.41h4.4v4.4h-4.4z"/><path fill="#b55608" d="M30.82.47h4.4v4.4h-4.4z"/><path fill="#710000" d="M26.42 84.13h4.4v4.4h-4.4zm0-4.41h4.4v4.4h-4.4z"/><path fill="#b55608" d="M26.42 44.5h4.4v4.4h-4.4z"/><path fill="#ffc60a" d="M26.42 40.1h4.4v4.4h-4.4zm0-4.41h4.4v4.4h-4.4zm0-4.4h4.4v4.4h-4.4zm0-4.4h4.4v4.4h-4.4zm0-4.41h4.4v4.4h-4.4zm0-4.4h4.4v4.4h-4.4z"/><path fill="#ffcf33" d="M26.42 13.68h4.4v4.4h-4.4zm0-4.4h4.4v4.4h-4.4zm0-4.41h4.4v4.4h-4.4z"/><path fill="#b55608" d="M26.42.47h4.4v4.4h-4.4zm-4.4 39.63h4.4v4.4h-4.4zm0-4.41h4.4v4.4h-4.4zm0-4.4h4.4v4.4h-4.4zm0-4.4h4.4v4.4h-4.4zm0-4.41h4.4v4.4h-4.4zm0-4.4h4.4v4.4h-4.4zm0-4.4h4.4v4.4h-4.4zm0-4.4h4.4v4.4h-4.4z"/><path fill="#c36f09" d="M22.02 4.87h4.4v4.4h-4.4z"/><path fill="#b55608" d="M17.61 35.69h4.4v4.4h-4.4z"/><path fill="#ffcf33" d="M17.61 31.29h4.4v4.4h-4.4zm0-17.61h4.4v4.4h-4.4z"/><path fill="#ffe285" d="M17.61 9.28h4.4v4.4h-4.4z"/><path fill="#c36f09" d="M17.61 4.87h4.4v4.4h-4.4z"/><path fill="#b55608" d="M13.21 35.69h4.4v4.4h-4.4z"/><path fill="#ffc60a" d="M13.21 31.29h4.4v4.4h-4.4z"/><path fill="#ffe285" d="M13.21 26.89h4.4v4.4h-4.4z"/><path fill="#ffcf33" d="M13.21 9.28h4.4v4.4h-4.4z"/><path fill="#ffe285" d="M13.21 4.87h4.4v4.4h-4.4z"/><path fill="#c36f09" d="M13.21.47h4.4v4.4h-4.4z"/><path fill="#b55608" d="M8.81 31.29h4.4v4.4h-4.4z"/><path fill="#ffc60a" d="M8.81 26.89h4.4v4.4h-4.4z"/><path fill="#ffe285" d="M8.81 22.48h4.4v4.4h-4.4z"/><path fill="#ffcf33" d="M8.81 9.28h4.4v4.4h-4.4z"/><path fill="#ffe285" d="M8.81 4.87h4.4v4.4h-4.4z"/><path fill="#c36f09" d="M8.81.47h4.4v4.4h-4.4z"/><path fill="#b55608" d="M4.4 26.89h4.4v4.4H4.4z"/><path fill="#ffc60a" d="M4.4 22.48h4.4v4.4H4.4z"/><path fill="#ffcf33" d="M4.4 18.08h4.4v4.4H4.4zm0-4.4h4.4v4.4H4.4zm0-4.4h4.4v4.4H4.4z"/><path fill="#ffe285" d="M4.4 4.87h4.4v4.4H4.4z"/><path fill="#b55608" d="M4.4.47h4.4v4.4H4.4zM0 22.48h4.4v4.4H0zm0-4.4h4.4v4.4H0zm0-4.4h4.4v4.4H0zm0-4.4h4.4v4.4H0zm0-4.41h4.4v4.4H0z"/></g></svg>