<svg version="1.2" xmlns="http://www.w3.org/2000/svg" viewBox="0 0 361 408" width="361" height="408"><style>.a{fill:#25f4ee}.b{fill:#fe2c55}.c{fill:#fff}</style><path class="a" d="m21 284.2c0 32.4 12.2 62 32.7 84.1-31.8-22.4-52.7-59.4-52.7-101.2 0-68.1 55.4-123.5 123.5-123.5 5.7 0 11.2 0.5 16.7 1.2v16.3c-66.8 1.6-120.2 55.9-120.2 123.1z"/><path class="a" d="m98.4 317.1c7.8 4.1 16.7 6.5 26.1 6.5 30.4 0 55.2-24.2 56.3-54.3l0.1-269h67.2c0 5.8 0.5 11.5 1.5 17l0.1 0.4h-48.7l-0.2 268.6c-1.2 30.1-26.3 54.6-56.7 54.6-18.8 0-35.5-9.6-45.7-23.8z"/><path class="a" d="m290.6 78.5c14.6 9.6 32.1 15.2 50.8 15.2v15.7c-20.1-4.3-37.8-15.9-50.8-30.9z"/><path class="b" d="m249.3 17.3h18.3c0 23.4 8.7 44.8 23 61.2-21-13.7-36.5-35.6-41.3-61.2z"/><path class="b" d="m140.7 212.6l0.2-51.9h0.3c1 0 1.9-0.1 2.9-0.1 5.6 0 11.2 0.5 16.6 1.2v68.6c-5.2-1.7-10.8-2.6-16.6-2.6-31.1 0-56.4 25.3-56.4 56.4 0 12.3 4 23.6 10.7 32.9-18-9.5-30.7-28.3-30.7-50 0-31.1 25.7-56.9 56.8-56.9 5.8 0 11 0.7 16.2 2.4z"/><path class="b" d="m361 110.7v67.1c-34.8 0-67.1-11.1-93.4-30v136.4c0 68.1-55.4 123.5-123.5 123.5-35.6 0-67.8-15.2-90.4-39.4 20.1 14.1 44.5 22 70.8 22 68.1 0 123.2-55 123.2-123.2v-137.1c26.3 18.9 58.6 30.4 93.4 30.4v-51.8h0.3c6.3 1.4 12.9 2.1 19.6 2.1z"/><path class="c" d="m124.5 390.7c-26.3 0-50.7-8.3-70.8-22.4-20.5-22.1-33.1-51.7-33.1-84.1 0-67.2 53.8-121.9 120.6-123.5v52.6c-5.3-1.6-10.9-2.6-16.7-2.6-31.1 0-56.4 25.3-56.4 56.4 0 21.7 12.3 40.5 30.3 50 10.2 14.2 26.9 23.5 45.7 23.5 30.4 0 55.2-24.2 56.3-54.3l0.1-269h49.1c4.8 25.6 20 47.5 41 61.2 13 15 30.7 25.8 50.8 30.1v52.2c-34.8 0-67-11.2-93.3-30v136.3c0 68.2-55.5 123.6-123.6 123.6z"/></svg>