<svg width="256" height="256" xmlns="http://www.w3.org/2000/svg"><defs><clipPath clipPathUnits="userSpaceOnUse" id="prefix__a"><path d="M0 192h192V0H0z"/></clipPath></defs><g clip-path="url(#prefix__a)" transform="matrix(1.33333 0 0 -1.33333 0 256)"><path d="M180.322 138.637c-2.024 7.622-7.987 13.624-15.56 15.661C151.036 158 96 158 96 158s-55.037 0-68.762-3.702c-7.573-2.037-13.537-8.039-15.56-15.66C8 124.822 8 96 8 96s0-28.822 3.677-42.638c2.024-7.62 7.988-13.623 15.561-15.66C40.963 34 96 34 96 34s55.037 0 68.761 3.701c7.574 2.038 13.537 8.04 15.561 15.661C184 67.178 184 96 184 96s0 28.823-3.678 42.637" fill="red"/><path d="M78 69.831L124 96l-46 26.17z" fill="#fff"/></g></svg>